M48
; DRILL file {KiCad 9.0.6} date 2026-03-15T12:26:49+0530
; FORMAT={-:-/ absolute / metric / decimal}
; #@! TF.CreationDate,2026-03-15T12:26:49+05:30
; #@! TF.GenerationSoftware,Kicad,Pcbnew,9.0.6
; #@! TF.FileFunction,Plated,1,2,PTH
FMAT,2
METRIC
; #@! TA.AperFunction,Plated,PTH,ViaDrill
T1C0.300
; #@! TA.AperFunction,Plated,PTH,ComponentDrill
T2C0.600
; #@! TA.AperFunction,Plated,PTH,ComponentDrill
T3C1.000
%
G90
G05
T1
X133.934Y-49.066
X134.5Y-48.5
X137.5Y-51.0
X138.009Y-49.761
X139.5Y-51.5
X142.0Y-51.5
X145.5Y-51.5
X146.5Y-51.0
X149.0Y-49.5
X150.224Y-50.376
X150.5Y-54.0
X157.0Y-45.0
X157.117Y-46.452
X157.75Y-45.75
X157.799Y-55.799
X158.1Y-50.062
T3
X165.0Y-44.84
X165.0Y-47.38
X165.0Y-49.92
X165.0Y-52.46
X165.0Y-55.0
T2
G00X131.15Y-45.43
M15
G01X130.55Y-45.43
M16
G05
G00X131.15Y-54.07
M15
G01X130.55Y-54.07
M16
G05
G00X135.58Y-45.43
M15
G01X134.48Y-45.43
M16
G05
G00X135.58Y-54.07
M15
G01X134.48Y-54.07
M16
G05
M30
